<?xml version="1.0" standalone="no"?>
<!DOCTYPE svg PUBLIC "-//W3C//DTD SVG 1.1//EN" "http://www.w3.org/Graphics/SVG/1.1/DTD/svg11.dtd" >
<svg xmlns="http://www.w3.org/2000/svg" xmlns:xlink="http://www.w3.org/1999/xlink" version="1.1" viewBox="-10 0 266 256">
   <path fill="currentColor"
d="M91 3q6 3 15 12q3 4 0 6q-6 1 -14 8l-1 1q-45 39 -57 41q-6 1 0 -2q39 -31 60 -51q4 -3 2 -6q-1 0 -3 -2q-2 -3 -3 -5q-3 -3 1 -2zM164 26q-1 -2 2 -1q5 7 1 15q-18 41 -23 37q-5 0 -2 -6q22 -33 22 -45zM98 34q25 -1 34 6q1 4 -3 5q-9 -2 -13 -1q-1 0 -4 1h-6
q-6 2 -1 -2q6 -3 -7 -6q-2 0 -2 -1t2 -2zM110 67q2 1 1 2q0 2 -2 2q-7 1 -10 5q-3 3 -8 7l-2 1q9 2 11 10q5 -2 14 -3q2 1 2 3q-2 2 -5 2q-11 2 -12 3q-9 7 -9 28q3 -2 3 0t-3 6v25q8 -18 13 -36q1 -5 -2 -5q-3 2 0 -2q3 -6 10 -6q4 1 3 5q-4 3 -6 12q-6 11 -8 22
q-5 14 -9 20v4q20 -25 45 -70q3 -4 2 1q-25 52 -39 72q-13 13 -18 22q-3 5 -5 1q-3 -3 9 -20q-2 -5 -1 -13q-1 -3 1 -2t2 -3q0 -7 -1 -11v-10q-9 8 -16 24q-5 5 -6 -1q-2 -1 -1 -12q1 -5 7 -6q2 4 16 -11q-1 -17 1 -26q-7 5 -19 16q-4 3 -6 5q-5 6 -19 12q-5 2 -6 -1
q-3 -4 -1 -6q3 -2 3 -5q1 -3 2 0q0 6 4 4q8 -4 17 -10q13 -12 26 -20q1 -9 -1 -17q-7 4 -17 14q-3 2 -4 2q-1 -1 1 -4l3 -3q1 -2 3 -4q-8 2 -12 0h-3q0 -2 3 -3q19 -4 25 -13q5 -6 9 -6h8q5 -1 7 -1zM202 143q0 -3 -1 -3q0 -1 -3 -1q-10 3 -21 7q-8 3 -20 4q-5 1 -6 3
q3 5 7 11q3 8 11 9q6 -4 15 -6q14 -8 18 -24zM151 75q12 3 23 9q2 -6 5 -11q7 -15 12 -26q1 -2 0 -2q0 -1 -2 -1q-4 1 -9 3q-1 1 -2 1q-5 3 -9 1q-3 1 0 -2l15 -5q-1 0 3 -1q6 -3 9 -8q4 -5 15 2q2 5 -2 7q-7 1 -10 7q-7 10 -17 28q-4 6 -5 9l3 3q5 3 10 5q3 6 0 10
q-7 4 -11 1q-2 -3 -8 -8q-16 30 -26 48q2 3 4 4q18 -8 46 -15h2q3 -1 5 -2q6 -4 19 9q4 5 0 7t-7 6q-5 5 -17 12q3 2 11 1q4 3 2 6q-6 6 -18 1h-2q-5 -2 -10 0q-1 1 -2 1q-4 2 -8 1q-1 8 -5 7q-9 2 -15 -9q-4 -4 -3 -13q-1 0 -2 -3q-2 -3 -3 -6q-37 72 -63 81q-7 2 -1 -2
q24 -13 62 -83q-5 -12 -1 -19q3 -4 2 2q-2 5 2 11q6 -11 13 -23q8 -16 13 -25q-11 -10 -19 -15q-3 -1 -3 -3q1 -1 4 -1z" />
</svg>
